<svg width="303" height="298" viewBox="0 0 303 298" fill="none" xmlns="http://www.w3.org/2000/svg">
<path d="M160.84 40.2482L51.8327 95.1325L253.841 137.056L175.231 43.1859C173.517 41.1421 171.161 39.7391 168.548 39.2057C165.935 38.6722 163.218 39.0397 160.84 40.2482Z" fill="#EBEBEB"/>
<path d="M50.5832 95.2954L160.656 39.8736C163.117 38.613 165.933 38.2284 168.642 38.7832C171.35 39.3381 173.789 40.7992 175.556 42.9258L254.939 137.715L50.5832 95.2954ZM171.124 40.4473C169.548 39.6904 167.817 39.3087 166.069 39.3319C164.32 39.3551 162.6 39.7827 161.045 40.5812L53.0724 94.9738L252.761 136.415L174.934 43.4426C173.884 42.1939 172.58 41.1846 171.107 40.4826L171.124 40.4473Z" fill="#E0E0E0"/>
<path d="M51.8193 95.1562L254.538 137.229L231.741 247.073C231.289 249.248 229.992 251.155 228.135 252.374C226.278 253.593 224.012 254.024 221.837 253.572L35.5292 214.906C33.354 214.454 31.4472 213.157 30.2284 211.3C29.0095 209.443 28.5783 207.177 29.0298 205.002L51.827 95.1578L51.8193 95.1562Z" fill="#F0F0F0"/>
<path d="M240.813 137.221L147.26 171.142L62.6832 104.187L76.0221 48.6805C76.6662 45.7937 78.4201 43.2762 80.9049 41.6717C83.3897 40.0673 86.4059 39.5047 89.302 40.1056L242.851 71.9926C244.299 72.2919 245.674 72.8739 246.897 73.7053C248.12 74.5367 249.167 75.6011 249.978 76.8376C250.789 78.0741 251.349 79.4585 251.624 80.9114C251.9 82.3644 251.886 83.8574 251.584 85.3051L240.813 137.221Z" fill="white"/>
<path d="M141.071 161.96L29.1479 203.978C28.9012 205.162 28.8903 206.384 29.116 207.572C29.3417 208.761 29.7994 209.893 30.4631 210.905C31.1268 211.917 31.9834 212.787 32.9839 213.468C33.9844 214.148 35.1092 214.624 36.2939 214.87L221.187 253.222C223.579 253.718 226.07 253.244 228.112 251.904C230.155 250.564 231.581 248.468 232.079 246.076L232.222 245.381L151.333 164.188C150.019 162.867 148.352 161.954 146.531 161.559C144.71 161.164 142.814 161.303 141.071 161.96Z" fill="#E0E0E0"/>
<path d="M151.562 79.217L91.4839 66.7593L90.2119 72.8934L150.29 85.3512L151.562 79.217Z" fill="#E0E0E0"/>
<path d="M221.555 109.951L88.2578 82.311L86.8207 89.2416L220.118 116.882L221.555 109.951Z" fill="#E0E0E0"/>
<path d="M218.048 126.885L84.7505 99.2446L83.3134 106.175L216.611 133.816L218.048 126.885Z" fill="#E0E0E0"/>
<path d="M210.922 148.126L205.4 150.061L92.8825 128.119L81.2899 118.785L81.4779 117.131L214.346 144.687L213.874 146.986L210.922 148.126Z" fill="#E0E0E0"/>
<path d="M172.825 161.871L122.418 151.41L110.165 141.646L185.505 157.269L172.825 161.871Z" fill="#E0E0E0"/>
<path d="M136.987 163.485C136.987 163.485 136.901 163.539 136.717 163.615L135.9 163.942L132.766 165.152L121.182 169.587C111.392 173.306 97.8356 178.432 82.876 184.004C67.9163 189.575 54.2722 194.486 44.3908 197.944C39.4466 199.671 35.431 201.055 32.6574 201.986L29.4625 203.053L28.6235 203.318C28.5309 203.356 28.4337 203.382 28.3344 203.395C28.4219 203.347 28.5138 203.307 28.6089 203.276L29.4332 202.969L32.5884 201.822L44.2709 197.652C54.1272 194.156 67.7389 189.186 82.7265 183.611C97.7141 178.035 111.248 173.028 121.066 169.306L132.687 164.992L135.845 163.838L136.677 163.553L136.987 163.485Z" fill="#FAFAFA"/>
<path d="M232.222 245.381C232.139 245.463 214.836 228.263 193.576 206.964C172.316 185.666 155.147 168.331 155.23 168.249C155.312 168.167 172.619 185.36 193.865 206.687C215.112 228.014 232.308 245.292 232.222 245.381Z" fill="#FAFAFA"/>
<path d="M245.279 135.568C245.21 135.612 245.137 135.65 245.06 135.68L244.397 135.96L241.835 137.01L232.367 140.779C224.353 143.928 213.259 148.192 200.935 152.74C188.612 157.288 177.398 161.241 169.262 164.046L159.609 167.318L156.974 168.177L156.288 168.394C156.128 168.438 156.048 168.461 156.044 168.45C156.118 168.411 156.195 168.379 156.274 168.352L156.945 168.093L159.554 167.161L169.157 163.761C177.274 160.886 188.469 156.88 200.782 152.336C213.096 147.792 224.214 143.567 232.251 140.498L241.805 136.874L244.343 135.873L245.025 135.628C245.107 135.598 245.192 135.578 245.279 135.568Z" fill="#FAFAFA"/>
<path d="M136.987 163.485C136.906 163.44 136.83 163.386 136.761 163.324L136.138 162.816L133.657 160.755C131.538 158.99 128.445 156.452 124.599 153.352C116.923 147.135 106.177 138.713 94.2811 129.451C82.3852 120.189 71.6665 111.727 64.0386 105.446C60.2194 102.308 57.1506 99.7382 55.059 97.9339L52.6805 95.896L52.074 95.3527C51.9992 95.295 51.9323 95.2279 51.875 95.1528L52.098 95.3208L52.7248 95.8219L55.1699 97.8657C57.2959 99.6345 60.3921 102.165 64.2353 105.272C71.9112 111.489 82.6502 119.908 94.5532 129.174C106.456 138.439 117.168 146.897 124.796 153.178C128.615 156.317 131.687 158.879 133.775 160.69L136.175 162.773L136.782 163.317L136.987 163.485Z" fill="#FAFAFA"/>
<path d="M240.813 137.221C240.813 137.221 240.854 136.955 240.962 136.425L241.406 134.183C241.806 132.197 242.395 129.295 243.152 125.554L249.655 93.8632C250.002 92.1905 250.355 90.4768 250.712 88.7223C250.895 87.8554 251.081 86.9641 251.259 86.0693C251.354 85.6201 251.455 85.1743 251.515 84.7256C251.589 84.2749 251.631 83.8195 251.641 83.3629C251.703 81.4457 251.264 79.5455 250.367 77.8496C249.471 76.1538 248.148 74.7209 246.529 73.6923C245.69 73.1515 244.781 72.7288 243.826 72.436C242.864 72.164 241.843 71.9768 240.829 71.758L234.618 70.5067L221.703 67.8017L164.137 55.8762L106.543 43.9021L93.6285 41.2146L90.5055 40.5805C89.5029 40.324 88.4796 40.1571 87.4475 40.0818C86.4352 40.032 85.4211 40.1289 84.4366 40.3694C83.4638 40.5967 82.5275 40.9584 81.6546 41.4441C80.7958 41.9191 80.0018 42.5027 79.2921 43.1805C78.6075 43.8571 78.0094 44.6159 77.5113 45.4396C76.4693 47.0647 76.1486 48.9586 75.6971 50.7636C74.82 54.3917 73.9791 57.8666 73.1743 61.1882C69.9258 74.4748 67.3556 85.2325 65.5212 92.6556C64.6057 96.3636 63.9013 99.2359 63.4276 101.195C63.1872 102.164 62.9957 102.905 62.8706 103.418C62.7456 103.931 62.6585 104.184 62.6585 104.184C62.6585 104.184 62.7069 103.921 62.8283 103.398C62.9497 102.875 63.1203 102.141 63.3433 101.172C63.8062 99.1989 64.4895 96.3165 65.3664 92.5985C67.134 85.1519 69.6971 74.3909 72.8582 61.1056C73.6583 57.7817 74.4899 54.3024 75.3528 50.6674C75.7942 48.8836 76.1279 46.9266 77.197 45.245C77.7028 44.4127 78.3103 43.6467 79.0054 42.9645C79.7382 42.2653 80.5563 41.6615 81.4405 41.1675C82.3399 40.6645 83.3057 40.2905 84.3093 40.0565C85.3246 39.8008 86.3721 39.6964 87.4178 39.7464C88.4729 39.8106 89.5198 39.9714 90.5455 40.2266L93.7038 40.8777L106.632 43.5545L164.24 55.5003L221.835 67.4743L234.71 70.117L240.9 71.4106C241.918 71.6223 242.921 71.8098 243.93 72.0951C245.386 72.5456 246.738 73.282 247.906 74.2611C249.074 75.2402 250.035 76.4424 250.733 77.7974C251.621 79.5241 252.051 81.4491 251.984 83.3891C251.976 83.8591 251.93 84.3277 251.848 84.7905C251.782 85.2532 251.687 85.7024 251.593 86.1516C251.407 87.043 251.222 87.9344 251.036 88.8083C250.671 90.5594 250.309 92.2685 249.964 93.9424L243.318 125.625C242.529 129.359 241.873 132.238 241.495 134.234C241.275 135.213 241.115 135.961 241.001 136.47C240.886 136.979 240.813 137.221 240.813 137.221Z" fill="#E0E0E0"/>
</svg>
